<svg xmlns="http://www.w3.org/2000/svg" viewBox="0 0 791.91 834.41">
  <defs>
    <style>
      .cls-1 {
        fill: #67e57e;
      }

      .cls-2 {
        fill: #6ad9eb;
      }

      .cls-3 {
        fill: #ff6e57;
      }

      .cls-4 {
        fill: #fff566;
      }

      .cls-5 {
        fill: #ffb5b5;
      }

      .cls-6 {
        fill: #fff;
      }

      .cls-7 {
        fill: #a3efff;
      }

      .cls-8 {
        font-size: 190px;
        fill: #06d79c;
        font-family: MicrosoftSansSerif, Microsoft Sans Serif;
      }
    </style>
  </defs>
  <title>esprgb</title>
  <g id="Layer_1" data-name="Layer 1">
    <g>
      <path class="cls-1" d="M466.5,257.29l-79-26.32A214.59,214.59,0,0,0,273.46,421.08c0,118.45,96.52,215,215,215A219.94,219.94,0,0,0,602.5,603.88L623,444.48Z" transform="translate(-206.54 -16)"/>
      <path class="cls-2" d="M818.93,232.43s-182.8,114.07-184.26,117c0,1.47-39.48,219.36-39.48,219.36l7.31,36.56a216,216,0,0,0,114.07,32.17c118.45,0,215-96.51,215-215,0-83.35-45.34-153.55-112.61-190.11Z" transform="translate(-206.54 -16)"/>
      <g>
        <path class="cls-3" d="M818.93,231c0-118.45-96.51-215-215-215S389,112.52,389,231h0l68.73,62.88,333.43-21.93,27.78-41Z" transform="translate(-206.54 -16)"/>
        <path class="cls-4" d="M488.43,206.11A214.62,214.62,0,0,0,387.53,231c0,81.89,45.33,152.09,112.6,188.65l35.1-4.39,67.27-93.59V238.28a216.09,216.09,0,0,0-114.07-32.17Z" transform="translate(-206.54 -16)"/>
        <path class="cls-5" d="M716.57,206.11A219.94,219.94,0,0,0,602.5,238.28l-10.24,55.57L661,421.08h43.87c67.27-36.56,114.06-106.75,114.06-188.65-30.71-17.55-65.8-26.32-102.36-26.32Z" transform="translate(-206.54 -16)"/>
        <path class="cls-6" d="M704.87,421.08A214.66,214.66,0,0,1,604,445.94c-36.56,0-71.65-8.77-102.36-26.32,0-76.05,40.94-143.31,102.36-181.34,60,38,100.91,105.29,100.91,182.8Z" transform="translate(-206.54 -16)"/>
        <path class="cls-7" d="M604,445.94a214.66,214.66,0,0,0,100.91-24.86h0c0,77.51-41,144.78-102.37,182.8-61.42-38-102.37-105.29-102.37-182.8v-1.46c30.71,17.55,65.81,26.32,103.83,26.32Z" transform="translate(-206.54 -16)"/>
      </g>
    </g>
  </g>
  <g id="Layer_2" data-name="Layer 2">
    <text class="cls-8" transform="translate(0 785.61)">ESPRGB</text>
  </g>
</svg>
